# xmcd
#
# Track frame offsets:
#	150
#	14402
#	26135
#	42280
#	57010
#	66265
#	81810
#	97037
#	114210
#	128535
#	145907
#	158352
#	173190
#	185227
#	197455
#	211810
#	232255
#
# Disc length: 3283 seconds
#
# Revision: 0
# Processed by: cddbd v1.5.1PL0 Copyright (c) Steve Scherf et al.
# Submitted via: dBpowerAMP V4.0
#
DISCID=e40cd111
DTITLE=奚秀蘭 - 奚秀蘭小調專輯
DYEAR=1900
DGENRE=Country
TTITLE0=五月的風
TTITLE1=小小洞房
TTITLE2=天涯歌女
TTITLE3=月圓花好
TTITLE4=天女散花
TTITLE5=想郎
TTITLE6=三更相思
TTITLE7=春來人不來
TTITLE8=蘭閨寂寂
TTITLE9=琵琶怨
TTITLE10=秦淮河畔
TTITLE11=拷紅
TTITLE12=樓台會
TTITLE13=儂本痴情
TTITLE14=何必相逢
TTITLE15=嘆十聲
TTITLE16=交換
EXTD=
EXTT0=
EXTT1=
EXTT2=
EXTT3=
EXTT4=
EXTT5=
EXTT6=
EXTT7=
EXTT8=
EXTT9=
EXTT10=
EXTT11=
EXTT12=
EXTT13=
EXTT14=
EXTT15=
EXTT16=
PLAYORDER=
